<?xml version="1.0" standalone="no"?>
<!DOCTYPE svg PUBLIC "-//W3C//DTD SVG 20010904//EN"
 "http://www.w3.org/TR/2001/REC-SVG-20010904/DTD/svg10.dtd">
<svg version="1.0" xmlns="http://www.w3.org/2000/svg"
 width="100.000000pt" height="100.000000pt" viewBox="0 0 100.000000 100.000000"
 preserveAspectRatio="xMidYMid meet">
<metadata>
Created by potrace 1.11, written by Peter Selinger 2001-2013
</metadata>
<g transform="translate(0.000000,100.000000) scale(0.100000,-0.100000)"
fill="#000000" stroke="none">
<path d="M275 845 c-14 -13 -25 -36 -25 -50 0 -33 42 -75 75 -75 33 0 75 42
75 75 0 14 -11 37 -25 50 -13 14 -36 25 -50 25 -14 0 -37 -11 -50 -25z"/>
<path d="M625 845 c-14 -13 -25 -36 -25 -50 0 -33 42 -75 75 -75 14 0 37 11
50 25 14 13 25 36 25 50 0 14 -11 37 -25 50 -13 14 -36 25 -50 25 -14 0 -37
-11 -50 -25z"/>
<path d="M205 667 l-35 -35 0 -105 c0 -105 0 -106 29 -129 26 -20 31 -31 36
-93 10 -104 13 -148 14 -172 1 -22 5 -23 76 -23 71 0 75 1 76 23 1 53 11 142
15 146 2 3 9 0 15 -6 10 -10 15 -47 18 -135 1 -27 3 -28 56 -28 45 0 55 3 56
18 3 87 11 138 24 151 8 8 15 11 16 6 2 -22 7 -112 8 -142 l1 -33 65 0 65 0 1
43 c1 23 2 47 4 52 1 6 3 31 3 58 2 44 4 47 28 47 25 0 25 2 19 41 -6 34 -3
44 15 64 19 20 21 31 16 72 -4 26 -9 62 -11 80 -11 90 -83 145 -170 129 -37
-7 -89 -50 -99 -83 -9 -29 -64 -19 -72 12 -3 13 -17 34 -31 47 -21 20 -37 23
-114 26 l-89 4 -35 -35z"/>
</g>
</svg>
